<?xml version="1.0" encoding="UTF-8" standalone="no"?>
<svg
   xmlns:dc="http://purl.org/dc/elements/1.1/"
   xmlns:cc="http://creativecommons.org/ns#"
   xmlns:rdf="http://www.w3.org/1999/02/22-rdf-syntax-ns#"
   xmlns:svg="http://www.w3.org/2000/svg"
   xmlns="http://www.w3.org/2000/svg"
   xmlns:sodipodi="http://sodipodi.sourceforge.net/DTD/sodipodi-0.dtd"
   xmlns:inkscape="http://www.inkscape.org/namespaces/inkscape"
   viewBox="0 0 512 512"
   version="1.1"
   id="svg4"
   sodipodi:docname="search.svg"
   inkscape:version="0.92.4 (5da689c313, 2019-01-14)">
  <metadata
     id="metadata10">
    <rdf:RDF>
      <cc:Work
         rdf:about="">
        <dc:format>image/svg+xml</dc:format>
        <dc:type
           rdf:resource="http://purl.org/dc/dcmitype/StillImage" />
        <dc:title></dc:title>
      </cc:Work>
    </rdf:RDF>
  </metadata>
  <defs
     id="defs8" />
  <sodipodi:namedview
     pagecolor="#ffffff"
     bordercolor="#666666"
     borderopacity="1"
     objecttolerance="10"
     gridtolerance="10"
     guidetolerance="10"
     inkscape:pageopacity="0"
     inkscape:pageshadow="2"
     inkscape:window-width="1920"
     inkscape:window-height="1001"
     id="namedview6"
     showgrid="false"
     inkscape:zoom="13.650696"
     inkscape:cx="173.46284"
     inkscape:cy="187.64161"
     inkscape:window-x="-9"
     inkscape:window-y="41"
     inkscape:window-maximized="1"
     inkscape:current-layer="svg4" />
  <path
     d="M 505,442.7 405.3,343 c -4.5,-4.5 -10.6,-7 -17,-7 H 372 C 399.6,300.7 416,256.3 416,208 416,93.1 322.9,0 208,0 93.1,0 0,93.1 0,208 c 0,114.9 93.1,208 208,208 48.3,0 92.7,-16.4 128,-44 v 16.3 c 0,6.4 2.5,12.5 7,17 l 99.7,99.7 c 9.4,9.4 24.6,9.4 33.9,0 l 28.3,-28.3 c 9.4,-9.4 9.4,-24.6 0.1,-34 z M 208,336 C 137.3,336 80,278.8 80,208 80,137.3 137.2,80 208,80 c 70.7,0 128,57.2 128,128 0,70.7 -57.2,128 -128,128 z"
     id="path2"
     inkscape:connector-curvature="0"
     style="fill:#c0c0c0;fill-opacity:1" />
  <path
     style="fill:#c0c0c0;fill-opacity:1;stroke-width:4.39341211;stroke-miterlimit:4;stroke-dasharray:none;paint-order:stroke fill markers"
     d=""
     id="path819"
     inkscape:connector-curvature="0" />
  <path
     style="fill:#c0c0c0;fill-opacity:1;stroke-width:0.2;stroke-miterlimit:4;stroke-dasharray:none;paint-order:stroke fill markers"
     d=""
     id="path821"
     inkscape:connector-curvature="0" />
</svg>
