<?xml version="1.0" encoding="UTF-8" standalone="no"?>

<svg
   xmlns:dc="http://purl.org/dc/elements/1.1/"
   xmlns:cc="http://creativecommons.org/ns#"
   xmlns:rdf="http://www.w3.org/1999/02/22-rdf-syntax-ns#"
   xmlns:svg="http://www.w3.org/2000/svg"
   xmlns="http://www.w3.org/2000/svg"
   xmlns:sodipodi="http://sodipodi.sourceforge.net/DTD/sodipodi-0.dtd"
   xmlns:inkscape="http://www.inkscape.org/namespaces/inkscape"
   width="440"
   height="440"
   viewBox="0 0 116.41666 116.41667"
   version="1.1"
   id="svg8"
   inkscape:version="0.92.4 (5da689c313, 2019-01-14)"
   sodipodi:docname="viruscentered.svg">
  <defs
     id="defs2" />
  <sodipodi:namedview
     id="base"
     pagecolor="#ffffff"
     bordercolor="#666666"
     borderopacity="1.0"
     inkscape:pageopacity="0.0"
     inkscape:pageshadow="2"
     inkscape:zoom="1.0074671"
     inkscape:cx="143.01566"
     inkscape:cy="247.19663"
     inkscape:document-units="mm"
     inkscape:current-layer="layer1"
     showgrid="false"
     units="px"
     inkscape:window-width="1920"
     inkscape:window-height="1001"
     inkscape:window-x="-9"
     inkscape:window-y="41"
     inkscape:window-maximized="1" />
  <metadata
     id="metadata5">
    <rdf:RDF>
      <cc:Work
         rdf:about="">
        <dc:format>image/svg+xml</dc:format>
        <dc:type
           rdf:resource="http://purl.org/dc/dcmitype/StillImage" />
        <dc:title></dc:title>
      </cc:Work>
    </rdf:RDF>
  </metadata>
  <g
     inkscape:label="Layer 1"
     inkscape:groupmode="layer"
     id="layer1"
     transform="translate(0,-180.58332)">
    <g
       id="g846"
       transform="translate(-62.335315,-33.259217)">
      <path
         style="fill:#ffffff;stroke-width:0.26458332"
         d="m 62.335316,272.05087 v -58.20833 h 58.208334 58.20833 v 58.20833 58.20833 H 120.54365 62.335316 Z"
         id="path864"
         inkscape:connector-curvature="0" />
      <path
         style="fill:#e1ed29;stroke-width:0.26458332"
         d="m 111.50033,320.37517 c -2.42228,-0.67192 -4.22142,-2.64418 -4.75855,-5.21649 -0.74161,-3.55149 1.87683,-7.2213 5.57431,-7.81255 1.19689,-0.19139 0.95351,0.3001 2.50057,-5.04982 l 0.39682,-1.37227 -0.84064,-0.16752 c -3.7063,-0.73859 -8.65843,-3.05502 -12.04278,-5.63318 -2.17346,-1.65573 -2.21465,-1.67355 -2.767776,-1.19796 -1.773086,1.52455 -11.297803,10.20996 -11.297803,10.30227 0,0.0607 0.197796,0.82181 0.439547,1.69134 0.372914,1.34129 0.390755,1.79899 0.117689,3.01917 -0.177021,0.79102 -0.671557,1.92096 -1.098969,2.51098 -3.457677,4.77319 -10.724795,3.16574 -11.937219,-2.64046 -0.576728,-2.76189 0.940368,-5.79912 3.597363,-7.20193 1.395764,-0.73691 4.363919,-0.79433 5.636923,-0.10903 l 0.856375,0.46101 5.758207,-5.17995 c 3.167015,-2.84897 5.863539,-5.33071 5.992275,-5.51499 0.158372,-0.22669 -0.16479,-0.84865 -0.999315,-1.92328 -0.678358,-0.87353 -1.869581,-2.8291 -2.647162,-4.34571 l -1.41378,-2.75747 -5.026674,-0.0717 -5.026673,-0.0717 -0.162868,1.01852 c -0.503661,3.14973 -4.325817,5.51642 -7.758146,4.80387 -5.118127,-1.06252 -7.083047,-7.55924 -3.40016,-11.24213 2.930691,-2.93068 7.613057,-2.46725 10.192929,1.00885 l 0.92555,1.24708 h 4.714676 c 4.368746,0 4.704087,-0.034 4.570377,-0.46302 -0.07936,-0.25467 -0.26362,-1.29646 -0.409461,-2.31511 -0.601525,-4.20138 -0.132167,-9.02707 1.282539,-13.18643 l 0.772914,-2.27243 -1.363988,-0.50417 c -5.925292,-2.19016 -6.8825,-2.49268 -7.18082,-2.26949 -0.177061,0.13247 -0.821972,0.61924 -1.433136,1.0817 -3.743216,2.83247 -9.298558,0.71849 -10.328779,-3.93044 -0.365393,-1.64885 0.03949,-3.74738 0.98639,-5.11249 3.661156,-5.27815 11.568081,-3.17942 12.148782,3.22465 l 0.141012,1.55511 4.260166,1.54549 c 3.943244,1.43052 4.280426,1.51048 4.532529,1.07488 1.80834,-3.12464 5.929556,-7.3707 9.122376,-9.39872 1.01864,-0.64703 1.84589,-1.355 1.83834,-1.57328 -0.008,-0.21828 -0.22015,-0.98323 -0.47243,-1.69989 l -0.4587,-1.30302 -1.70361,-0.34729 c -2.95452,-0.60231 -4.997179,-2.57177 -5.581022,-5.38105 -0.921202,-4.43255 3.281322,-8.63507 7.713872,-7.71387 2.70864,0.56293 4.76969,2.62398 5.33262,5.33262 0.41565,1.99998 -0.15754,3.9547 -1.66025,5.66186 l -1.10039,1.25011 0.47901,1.58206 c 0.37604,1.24197 0.56882,1.54542 0.89682,1.41163 3.97719,-1.62226 6.68657,-2.10412 11.6626,-2.07421 3.81355,0.0229 4.69397,0.11355 6.96203,0.7166 1.42802,0.3797 3.56943,1.11104 4.75868,1.62521 l 2.16228,0.93484 0.56396,-0.59311 c 0.45101,-0.47434 8.18875,-8.91463 10.86099,-11.84713 l 0.61116,-0.67069 -0.59028,-1.1814 c -0.89119,-1.78364 -0.83308,-4.47254 0.13214,-6.11445 1.37783,-2.34381 3.28696,-3.46518 5.90184,-3.4666 3.70979,-0.002 6.53075,2.81462 6.54698,6.53693 0.0113,2.58793 -1.12792,4.52265 -3.47569,5.90281 -1.04944,0.61693 -1.49932,0.71678 -3.08096,0.68386 -1.01865,-0.0212 -2.11627,-0.0807 -2.43917,-0.13229 -0.47547,-0.0759 -1.69128,1.10657 -6.39551,6.22028 l -5.80843,6.31403 1.8976,1.5083 c 4.68989,3.72774 8.40758,9.26457 9.94217,14.80706 0.29785,1.07575 0.59193,2.0063 0.65351,2.06787 0.0992,0.0992 10.24489,-2.75904 13.42471,-3.78195 1.21789,-0.39179 1.22104,-0.39596 1.36646,-1.80486 0.4109,-3.9813 4.03553,-6.7601 7.83383,-6.00576 7.20628,1.43118 7.21462,11.532 0.0108,13.03628 -1.89376,0.39545 -4.06265,-0.19824 -5.51384,-1.50931 -0.55733,-0.50351 -1.2176,-0.91547 -1.46726,-0.91547 -0.24967,0 -3.72213,0.9525 -7.71658,2.11666 -3.99445,1.16417 -7.30002,2.11667 -7.34572,2.11667 -0.0457,0 -0.15288,1.57758 -0.23819,3.50573 -0.25997,5.87555 -2.13358,11.4148 -5.32888,15.75464 -0.71633,0.97291 -1.14649,1.79816 -1.03434,1.98438 0.10559,0.17533 1.54639,2.1942 3.20177,4.48637 2.86453,3.96645 3.044,4.15798 3.71886,3.96875 1.37611,-0.38587 3.83274,-0.19029 4.96045,0.39491 2.64713,1.37368 4.17465,4.42763 3.59736,7.1922 -1.51263,7.24385 -11.53896,7.21823 -13.05999,-0.0334 -0.27645,-1.31795 -0.24713,-1.64304 0.28457,-3.15574 0.32602,-0.92753 0.6154,-1.90085 0.64306,-2.16293 0.0277,-0.26208 -1.25305,-2.2931 -2.84602,-4.51338 l -2.8963,-4.03688 -2.18037,1.74938 c -3.56814,2.86285 -8.58988,5.18655 -13.19369,6.10512 -0.87312,0.17421 -3.0745,0.39017 -4.89195,0.47992 l -3.30445,0.16318 -0.88213,3.18396 -0.88213,3.18395 1.31296,1.31396 c 0.96685,0.96758 1.42532,1.6928 1.73919,2.75105 0.52495,1.76998 0.52906,2.22161 0.0353,3.88426 -1.00828,3.39522 -4.7151,5.45145 -8.12324,4.50608 z"
         id="path862"
         inkscape:connector-curvature="0" />
      <path
         style="fill:#3e95ee;stroke-width:0.26458332"
         d="m 111.50033,320.37517 c -2.42228,-0.67192 -4.22142,-2.64418 -4.75855,-5.21649 -0.74161,-3.55149 1.87683,-7.2213 5.57431,-7.81255 1.19689,-0.19139 0.95351,0.3001 2.50057,-5.04982 l 0.39682,-1.37227 -0.84064,-0.16752 c -3.7063,-0.73859 -8.65843,-3.05502 -12.04278,-5.63318 -2.17346,-1.65573 -2.21465,-1.67355 -2.767776,-1.19796 -1.773086,1.52455 -11.297803,10.20996 -11.297803,10.30227 0,0.0607 0.197796,0.82181 0.439547,1.69134 0.372914,1.34129 0.390755,1.79899 0.117689,3.01917 -0.177021,0.79102 -0.671557,1.92096 -1.098969,2.51098 -3.457677,4.77319 -10.724795,3.16574 -11.937219,-2.64046 -0.576728,-2.76189 0.940368,-5.79912 3.597363,-7.20193 1.395764,-0.73691 4.363919,-0.79433 5.636923,-0.10903 l 0.856375,0.46101 5.758207,-5.17995 c 3.167015,-2.84897 5.863539,-5.33071 5.992275,-5.51499 0.158372,-0.22669 -0.16479,-0.84865 -0.999315,-1.92328 -0.678358,-0.87353 -1.869581,-2.8291 -2.647162,-4.34571 l -1.41378,-2.75747 -5.026674,-0.0717 -5.026673,-0.0717 -0.162868,1.01852 c -0.503661,3.14973 -4.325817,5.51642 -7.758146,4.80387 -5.118127,-1.06252 -7.083047,-7.55924 -3.40016,-11.24213 2.930691,-2.93068 7.613057,-2.46725 10.192929,1.00885 l 0.92555,1.24708 h 4.714676 c 4.368746,0 4.704087,-0.034 4.570377,-0.46302 -0.07936,-0.25467 -0.26362,-1.29646 -0.409461,-2.31511 -0.601525,-4.20138 -0.132167,-9.02707 1.282539,-13.18643 l 0.772914,-2.27243 -1.363988,-0.50417 c -5.925292,-2.19016 -6.8825,-2.49268 -7.18082,-2.26949 -0.177061,0.13247 -0.821972,0.61924 -1.433136,1.0817 -3.743216,2.83247 -9.298558,0.71849 -10.328779,-3.93044 -0.365393,-1.64885 0.03949,-3.74738 0.98639,-5.11249 3.661156,-5.27815 11.568081,-3.17942 12.148782,3.22465 l 0.141012,1.55511 4.260166,1.54549 c 3.943244,1.43052 4.280426,1.51048 4.532529,1.07488 1.80834,-3.12464 5.929556,-7.3707 9.122376,-9.39872 1.01864,-0.64703 1.84589,-1.355 1.83834,-1.57328 -0.008,-0.21828 -0.22015,-0.98323 -0.47243,-1.69989 l -0.4587,-1.30302 -1.70361,-0.34729 c -2.95452,-0.60231 -4.997179,-2.57177 -5.581022,-5.38105 -0.921202,-4.43255 3.281322,-8.63507 7.713872,-7.71387 2.70864,0.56293 4.76969,2.62398 5.33262,5.33262 0.41565,1.99998 -0.15754,3.9547 -1.66025,5.66186 l -1.10039,1.25011 0.47901,1.58206 c 0.37604,1.24197 0.56882,1.54542 0.89682,1.41163 3.97719,-1.62226 6.68657,-2.10412 11.6626,-2.07421 3.81355,0.0229 4.69397,0.11355 6.96203,0.7166 1.42802,0.3797 3.56943,1.11104 4.75868,1.62521 l 2.16228,0.93484 0.56396,-0.59311 c 0.45101,-0.47434 8.18875,-8.91463 10.86099,-11.84713 l 0.61116,-0.67069 -0.59028,-1.1814 c -0.89119,-1.78364 -0.83308,-4.47254 0.13214,-6.11445 1.37783,-2.34381 3.28696,-3.46518 5.90184,-3.4666 3.70979,-0.002 6.53075,2.81462 6.54698,6.53693 0.0113,2.58793 -1.12792,4.52265 -3.47569,5.90281 -1.04944,0.61693 -1.49932,0.71678 -3.08096,0.68386 -1.01865,-0.0212 -2.11627,-0.0807 -2.43917,-0.13229 -0.47547,-0.0759 -1.69128,1.10657 -6.39551,6.22028 l -5.80843,6.31403 1.8976,1.5083 c 4.68989,3.72774 8.40758,9.26457 9.94217,14.80706 0.29785,1.07575 0.59193,2.0063 0.65351,2.06787 0.0992,0.0992 10.24489,-2.75904 13.42471,-3.78195 1.21789,-0.39179 1.22104,-0.39596 1.36646,-1.80486 0.4109,-3.9813 4.03553,-6.7601 7.83383,-6.00576 7.20628,1.43118 7.21462,11.532 0.0108,13.03628 -1.89376,0.39545 -4.06265,-0.19824 -5.51384,-1.50931 -0.55733,-0.50351 -1.2176,-0.91547 -1.46726,-0.91547 -0.24967,0 -3.72213,0.9525 -7.71658,2.11666 -3.99445,1.16417 -7.30002,2.11667 -7.34572,2.11667 -0.0457,0 -0.15288,1.57758 -0.23819,3.50573 -0.25997,5.87555 -2.13358,11.4148 -5.32888,15.75464 -0.71633,0.97291 -1.14649,1.79816 -1.03434,1.98438 0.10559,0.17533 1.54639,2.1942 3.20177,4.48637 2.86453,3.96645 3.044,4.15798 3.71886,3.96875 1.37611,-0.38587 3.83274,-0.19029 4.96045,0.39491 2.64713,1.37368 4.17465,4.42763 3.59736,7.1922 -1.51263,7.24385 -11.53896,7.21823 -13.05999,-0.0334 -0.27645,-1.31795 -0.24713,-1.64304 0.28457,-3.15574 0.32602,-0.92753 0.6154,-1.90085 0.64306,-2.16293 0.0277,-0.26208 -1.25305,-2.2931 -2.84602,-4.51338 l -2.8963,-4.03688 -2.18037,1.74938 c -3.56814,2.86285 -8.58988,5.18655 -13.19369,6.10512 -0.87312,0.17421 -3.0745,0.39017 -4.89195,0.47992 l -3.30445,0.16318 -0.88213,3.18396 -0.88213,3.18395 1.31296,1.31396 c 0.96685,0.96758 1.42532,1.6928 1.73919,2.75105 0.52495,1.76998 0.52906,2.22161 0.0353,3.88426 -1.00828,3.39522 -4.7151,5.45145 -8.12324,4.50608 z m 9.1976,-27.31809 c 2.72717,-1.29413 2.79546,-5.79396 0.11171,-7.36136 -1.26215,-0.73713 -3.29949,-0.70982 -4.54663,0.061 -2.48709,1.5371 -2.42361,5.65231 0.11103,7.1977 1.06286,0.64803 3.07401,0.6958 4.32389,0.1027 z"
         id="path860"
         inkscape:connector-curvature="0" />
      <path
         style="fill:#ac18ec;stroke-width:0.26458332"
         d="m 111.50033,320.37517 c -2.42228,-0.67192 -4.22142,-2.64418 -4.75855,-5.21649 -0.74161,-3.55149 1.87683,-7.2213 5.57431,-7.81255 1.19689,-0.19139 0.95351,0.3001 2.50057,-5.04982 l 0.39682,-1.37227 -0.84064,-0.16752 c -3.7063,-0.73859 -8.65843,-3.05502 -12.04278,-5.63318 -2.17346,-1.65573 -2.21465,-1.67355 -2.767776,-1.19796 -1.773086,1.52455 -11.297803,10.20996 -11.297803,10.30227 0,0.0607 0.197796,0.82181 0.439547,1.69134 0.372914,1.34129 0.390755,1.79899 0.117689,3.01917 -0.177021,0.79102 -0.671557,1.92096 -1.098969,2.51098 -3.457677,4.77319 -10.724795,3.16574 -11.937219,-2.64046 -0.576728,-2.76189 0.940368,-5.79912 3.597363,-7.20193 1.395764,-0.73691 4.363919,-0.79433 5.636923,-0.10903 l 0.856375,0.46101 5.758207,-5.17995 c 3.167015,-2.84897 5.863539,-5.33071 5.992275,-5.51499 0.158372,-0.22669 -0.16479,-0.84865 -0.999315,-1.92328 -0.678358,-0.87353 -1.869581,-2.8291 -2.647162,-4.34571 l -1.41378,-2.75747 -5.026674,-0.0717 -5.026673,-0.0717 -0.162868,1.01852 c -0.503661,3.14973 -4.325817,5.51642 -7.758146,4.80387 -5.118127,-1.06252 -7.083047,-7.55924 -3.40016,-11.24213 2.930691,-2.93068 7.613057,-2.46725 10.192929,1.00885 l 0.92555,1.24708 h 4.714676 c 4.368746,0 4.704087,-0.034 4.570377,-0.46302 -0.07936,-0.25467 -0.26362,-1.29646 -0.409461,-2.31511 -0.601525,-4.20138 -0.132167,-9.02707 1.282539,-13.18643 l 0.772914,-2.27243 -1.363988,-0.50417 c -5.925292,-2.19016 -6.8825,-2.49268 -7.18082,-2.26949 -0.177061,0.13247 -0.821972,0.61924 -1.433136,1.0817 -3.743216,2.83247 -9.298558,0.71849 -10.328779,-3.93044 -0.365393,-1.64885 0.03949,-3.74738 0.98639,-5.11249 3.661156,-5.27815 11.568081,-3.17942 12.148782,3.22465 l 0.141012,1.55511 4.260166,1.54549 c 3.943244,1.43052 4.280426,1.51048 4.532529,1.07488 1.80834,-3.12464 5.929556,-7.3707 9.122376,-9.39872 1.01864,-0.64703 1.84589,-1.355 1.83834,-1.57328 -0.008,-0.21828 -0.22015,-0.98323 -0.47243,-1.69989 l -0.4587,-1.30302 -1.70361,-0.34729 c -2.95452,-0.60231 -4.997179,-2.57177 -5.581022,-5.38105 -0.921202,-4.43255 3.281322,-8.63507 7.713872,-7.71387 2.70864,0.56293 4.76969,2.62398 5.33262,5.33262 0.41565,1.99998 -0.15754,3.9547 -1.66025,5.66186 l -1.10039,1.25011 0.47901,1.58206 c 0.37604,1.24197 0.56882,1.54542 0.89682,1.41163 3.97719,-1.62226 6.68657,-2.10412 11.6626,-2.07421 3.81355,0.0229 4.69397,0.11355 6.96203,0.7166 1.42802,0.3797 3.56943,1.11104 4.75868,1.62521 l 2.16228,0.93484 0.56396,-0.59311 c 0.45101,-0.47434 8.18875,-8.91463 10.86099,-11.84713 l 0.61116,-0.67069 -0.59028,-1.1814 c -0.89119,-1.78364 -0.83308,-4.47254 0.13214,-6.11445 1.37783,-2.34381 3.28696,-3.46518 5.90184,-3.4666 3.70979,-0.002 6.53075,2.81462 6.54698,6.53693 0.0113,2.58793 -1.12792,4.52265 -3.47569,5.90281 -1.04944,0.61693 -1.49932,0.71678 -3.08096,0.68386 -1.01865,-0.0212 -2.11627,-0.0807 -2.43917,-0.13229 -0.47547,-0.0759 -1.69128,1.10657 -6.39551,6.22028 l -5.80843,6.31403 1.8976,1.5083 c 4.68989,3.72774 8.40758,9.26457 9.94217,14.80706 0.29785,1.07575 0.59193,2.0063 0.65351,2.06787 0.0992,0.0992 10.24489,-2.75904 13.42471,-3.78195 1.21789,-0.39179 1.22104,-0.39596 1.36646,-1.80486 0.4109,-3.9813 4.03553,-6.7601 7.83383,-6.00576 7.20628,1.43118 7.21462,11.532 0.0108,13.03628 -1.89376,0.39545 -4.06265,-0.19824 -5.51384,-1.50931 -0.55733,-0.50351 -1.2176,-0.91547 -1.46726,-0.91547 -0.24967,0 -3.72213,0.9525 -7.71658,2.11666 -3.99445,1.16417 -7.30002,2.11667 -7.34572,2.11667 -0.0457,0 -0.15288,1.57758 -0.23819,3.50573 -0.25997,5.87555 -2.13358,11.4148 -5.32888,15.75464 -0.71633,0.97291 -1.14649,1.79816 -1.03434,1.98438 0.10559,0.17533 1.54639,2.1942 3.20177,4.48637 2.86453,3.96645 3.044,4.15798 3.71886,3.96875 1.37611,-0.38587 3.83274,-0.19029 4.96045,0.39491 2.64713,1.37368 4.17465,4.42763 3.59736,7.1922 -1.51263,7.24385 -11.53896,7.21823 -13.05999,-0.0334 -0.27645,-1.31795 -0.24713,-1.64304 0.28457,-3.15574 0.32602,-0.92753 0.6154,-1.90085 0.64306,-2.16293 0.0277,-0.26208 -1.25305,-2.2931 -2.84602,-4.51338 l -2.8963,-4.03688 -2.18037,1.74938 c -3.56814,2.86285 -8.58988,5.18655 -13.19369,6.10512 -0.87312,0.17421 -3.0745,0.39017 -4.89195,0.47992 l -3.30445,0.16318 -0.88213,3.18396 -0.88213,3.18395 1.31296,1.31396 c 0.96685,0.96758 1.42532,1.6928 1.73919,2.75105 0.52495,1.76998 0.52906,2.22161 0.0353,3.88426 -1.00828,3.39522 -4.7151,5.45145 -8.12324,4.50608 z m 9.1976,-27.31809 c 2.72717,-1.29413 2.79546,-5.79396 0.11171,-7.36136 -1.26215,-0.73713 -3.29949,-0.70982 -4.54663,0.061 -2.48709,1.5371 -2.42361,5.65231 0.11103,7.1977 1.06286,0.64803 3.07401,0.6958 4.32389,0.1027 z m -6.83259,-33.17561 c 1.79587,-1.09496 2.46502,-3.65886 1.49076,-5.71196 -1.29413,-2.72718 -5.79395,-2.79547 -7.36135,-0.11171 -1.15816,1.98303 -0.39636,4.97932 1.50419,5.91625 1.21437,0.59867 3.30538,0.55433 4.3664,-0.0926 z"
         id="path858"
         inkscape:connector-curvature="0" />
      <path
         style="fill:#f98d00;stroke-width:0.26458332"
         d="m 111.50033,320.37517 c -2.42228,-0.67192 -4.22142,-2.64418 -4.75855,-5.21649 -0.74161,-3.55149 1.87683,-7.2213 5.57431,-7.81255 1.19689,-0.19139 0.95351,0.3001 2.50057,-5.04982 l 0.39682,-1.37227 -0.84064,-0.16752 c -3.7063,-0.73859 -8.65843,-3.05502 -12.04278,-5.63318 -2.17346,-1.65573 -2.21465,-1.67355 -2.767776,-1.19796 -1.773086,1.52455 -11.297803,10.20996 -11.297803,10.30227 0,0.0607 0.197796,0.82181 0.439547,1.69134 0.372914,1.34129 0.390755,1.79899 0.117689,3.01917 -0.177021,0.79102 -0.671557,1.92096 -1.098969,2.51098 -3.457677,4.77319 -10.724795,3.16574 -11.937219,-2.64046 -0.576728,-2.76189 0.940368,-5.79912 3.597363,-7.20193 1.395764,-0.73691 4.363919,-0.79433 5.636923,-0.10903 l 0.856375,0.46101 5.758207,-5.17995 c 3.167015,-2.84897 5.863539,-5.33071 5.992275,-5.51499 0.158372,-0.22669 -0.16479,-0.84865 -0.999315,-1.92328 -0.678358,-0.87353 -1.869581,-2.8291 -2.647162,-4.34571 l -1.41378,-2.75747 -5.026674,-0.0717 -5.026673,-0.0717 -0.162868,1.01852 c -0.503661,3.14973 -4.325817,5.51642 -7.758146,4.80387 -5.118127,-1.06252 -7.083047,-7.55924 -3.40016,-11.24213 2.930691,-2.93068 7.613057,-2.46725 10.192929,1.00885 l 0.92555,1.24708 h 4.714676 c 4.368746,0 4.704087,-0.034 4.570377,-0.46302 -0.07936,-0.25467 -0.26362,-1.29646 -0.409461,-2.31511 -0.601525,-4.20138 -0.132167,-9.02707 1.282539,-13.18643 l 0.772914,-2.27243 -1.363988,-0.50417 c -5.925292,-2.19016 -6.8825,-2.49268 -7.18082,-2.26949 -0.177061,0.13247 -0.821972,0.61924 -1.433136,1.0817 -3.743216,2.83247 -9.298558,0.71849 -10.328779,-3.93044 -0.365393,-1.64885 0.03949,-3.74738 0.98639,-5.11249 3.661156,-5.27815 11.568081,-3.17942 12.148782,3.22465 l 0.141012,1.55511 4.260166,1.54549 c 3.943244,1.43052 4.280426,1.51048 4.532529,1.07488 1.80834,-3.12464 5.929556,-7.3707 9.122376,-9.39872 1.01864,-0.64703 1.84589,-1.355 1.83834,-1.57328 -0.008,-0.21828 -0.22015,-0.98323 -0.47243,-1.69989 l -0.4587,-1.30302 -1.70361,-0.34729 c -2.95452,-0.60231 -4.997179,-2.57177 -5.581022,-5.38105 -0.921202,-4.43255 3.281322,-8.63507 7.713872,-7.71387 2.70864,0.56293 4.76969,2.62398 5.33262,5.33262 0.41565,1.99998 -0.15754,3.9547 -1.66025,5.66186 l -1.10039,1.25011 0.47901,1.58206 c 0.37604,1.24197 0.56882,1.54542 0.89682,1.41163 3.97719,-1.62226 6.68657,-2.10412 11.6626,-2.07421 3.81355,0.0229 4.69397,0.11355 6.96203,0.7166 1.42802,0.3797 3.56943,1.11104 4.75868,1.62521 l 2.16228,0.93484 0.56396,-0.59311 c 0.45101,-0.47434 8.18875,-8.91463 10.86099,-11.84713 l 0.61116,-0.67069 -0.59028,-1.1814 c -0.89119,-1.78364 -0.83308,-4.47254 0.13214,-6.11445 1.37783,-2.34381 3.28696,-3.46518 5.90184,-3.4666 3.70979,-0.002 6.53075,2.81462 6.54698,6.53693 0.0113,2.58793 -1.12792,4.52265 -3.47569,5.90281 -1.04944,0.61693 -1.49932,0.71678 -3.08096,0.68386 -1.01865,-0.0212 -2.11627,-0.0807 -2.43917,-0.13229 -0.47547,-0.0759 -1.69128,1.10657 -6.39551,6.22028 l -5.80843,6.31403 1.8976,1.5083 c 4.68989,3.72774 8.40758,9.26457 9.94217,14.80706 0.29785,1.07575 0.59193,2.0063 0.65351,2.06787 0.0992,0.0992 10.24489,-2.75904 13.42471,-3.78195 1.21789,-0.39179 1.22104,-0.39596 1.36646,-1.80486 0.4109,-3.9813 4.03553,-6.7601 7.83383,-6.00576 7.20628,1.43118 7.21462,11.532 0.0108,13.03628 -1.89376,0.39545 -4.06265,-0.19824 -5.51384,-1.50931 -0.55733,-0.50351 -1.2176,-0.91547 -1.46726,-0.91547 -0.24967,0 -3.72213,0.9525 -7.71658,2.11666 -3.99445,1.16417 -7.30002,2.11667 -7.34572,2.11667 -0.0457,0 -0.15288,1.57758 -0.23819,3.50573 -0.25997,5.87555 -2.13358,11.4148 -5.32888,15.75464 -0.71633,0.97291 -1.14649,1.79816 -1.03434,1.98438 0.10559,0.17533 1.54639,2.1942 3.20177,4.48637 2.86453,3.96645 3.044,4.15798 3.71886,3.96875 1.37611,-0.38587 3.83274,-0.19029 4.96045,0.39491 2.64713,1.37368 4.17465,4.42763 3.59736,7.1922 -1.51263,7.24385 -11.53896,7.21823 -13.05999,-0.0334 -0.27645,-1.31795 -0.24713,-1.64304 0.28457,-3.15574 0.32602,-0.92753 0.6154,-1.90085 0.64306,-2.16293 0.0277,-0.26208 -1.25305,-2.2931 -2.84602,-4.51338 l -2.8963,-4.03688 -2.18037,1.74938 c -3.56814,2.86285 -8.58988,5.18655 -13.19369,6.10512 -0.87312,0.17421 -3.0745,0.39017 -4.89195,0.47992 l -3.30445,0.16318 -0.88213,3.18396 -0.88213,3.18395 1.31296,1.31396 c 0.96685,0.96758 1.42532,1.6928 1.73919,2.75105 0.52495,1.76998 0.52906,2.22161 0.0353,3.88426 -1.00828,3.39522 -4.7151,5.45145 -8.12324,4.50608 z m 9.1976,-27.31809 c 2.72717,-1.29413 2.79546,-5.79396 0.11171,-7.36136 -1.26215,-0.73713 -3.29949,-0.70982 -4.54663,0.061 -2.48709,1.5371 -2.42361,5.65231 0.11103,7.1977 1.06286,0.64803 3.07401,0.6958 4.32389,0.1027 z m 19.62574,-11.74437 c 1.37833,-0.84037 1.96355,-2.00328 1.84105,-3.65837 -0.0877,-1.18497 -0.25074,-1.55453 -1.02932,-2.33311 -3.45637,-3.45636 -8.61193,0.89922 -5.92262,5.00362 0.96179,1.46789 3.51438,1.96127 5.11089,0.98786 z m -26.45833,-21.43124 c 1.79587,-1.09496 2.46502,-3.65886 1.49076,-5.71196 -1.29413,-2.72718 -5.79395,-2.79547 -7.36135,-0.11171 -1.15816,1.98303 -0.39636,4.97932 1.50419,5.91625 1.21437,0.59867 3.30538,0.55433 4.3664,-0.0926 z"
         id="path856"
         inkscape:connector-curvature="0" />
      <path
         style="fill:#1d19fe;stroke-width:0.26458332"
         d="m 111.50033,320.37517 c -2.42228,-0.67192 -4.22142,-2.64418 -4.75855,-5.21649 -0.74161,-3.55149 1.87683,-7.2213 5.57431,-7.81255 1.19689,-0.19139 0.95351,0.3001 2.50057,-5.04982 l 0.39682,-1.37227 -0.84064,-0.16752 c -3.7063,-0.73859 -8.65843,-3.05502 -12.04278,-5.63318 -2.17346,-1.65573 -2.21465,-1.67355 -2.767776,-1.19796 -1.773086,1.52455 -11.297803,10.20996 -11.297803,10.30227 0,0.0607 0.197796,0.82181 0.439547,1.69134 0.372914,1.34129 0.390755,1.79899 0.117689,3.01917 -0.177021,0.79102 -0.671557,1.92096 -1.098969,2.51098 -3.457677,4.77319 -10.724795,3.16574 -11.937219,-2.64046 -0.576728,-2.76189 0.940368,-5.79912 3.597363,-7.20193 1.395764,-0.73691 4.363919,-0.79433 5.636923,-0.10903 l 0.856375,0.46101 5.758207,-5.17995 c 3.167015,-2.84897 5.863539,-5.33071 5.992275,-5.51499 0.158372,-0.22669 -0.16479,-0.84865 -0.999315,-1.92328 -0.678358,-0.87353 -1.869581,-2.8291 -2.647162,-4.34571 l -1.41378,-2.75747 -5.026674,-0.0717 -5.026673,-0.0717 -0.162868,1.01852 c -0.503661,3.14973 -4.325817,5.51642 -7.758146,4.80387 -5.118127,-1.06252 -7.083047,-7.55924 -3.40016,-11.24213 2.930691,-2.93068 7.613057,-2.46725 10.192929,1.00885 l 0.92555,1.24708 h 4.714676 c 4.368746,0 4.704087,-0.034 4.570377,-0.46302 -0.07936,-0.25467 -0.26362,-1.29646 -0.409461,-2.31511 -0.601525,-4.20138 -0.132167,-9.02707 1.282539,-13.18643 l 0.772914,-2.27243 -1.363988,-0.50417 c -5.925292,-2.19016 -6.8825,-2.49268 -7.18082,-2.26949 -0.177061,0.13247 -0.821972,0.61924 -1.433136,1.0817 -3.743216,2.83247 -9.298558,0.71849 -10.328779,-3.93044 -0.365393,-1.64885 0.03949,-3.74738 0.98639,-5.11249 3.661156,-5.27815 11.568081,-3.17942 12.148782,3.22465 l 0.141012,1.55511 4.260166,1.54549 c 3.943244,1.43052 4.280426,1.51048 4.532529,1.07488 1.80834,-3.12464 5.929556,-7.3707 9.122376,-9.39872 1.01864,-0.64703 1.84589,-1.355 1.83834,-1.57328 -0.008,-0.21828 -0.22015,-0.98323 -0.47243,-1.69989 l -0.4587,-1.30302 -1.70361,-0.34729 c -2.95452,-0.60231 -4.997179,-2.57177 -5.581022,-5.38105 -0.921202,-4.43255 3.281322,-8.63507 7.713872,-7.71387 2.70864,0.56293 4.76969,2.62398 5.33262,5.33262 0.41565,1.99998 -0.15754,3.9547 -1.66025,5.66186 l -1.10039,1.25011 0.47901,1.58206 c 0.37604,1.24197 0.56882,1.54542 0.89682,1.41163 3.97719,-1.62226 6.68657,-2.10412 11.6626,-2.07421 3.81355,0.0229 4.69397,0.11355 6.96203,0.7166 1.42802,0.3797 3.56943,1.11104 4.75868,1.62521 l 2.16228,0.93484 0.56396,-0.59311 c 0.45101,-0.47434 8.18875,-8.91463 10.86099,-11.84713 l 0.61116,-0.67069 -0.59028,-1.1814 c -0.89119,-1.78364 -0.83308,-4.47254 0.13214,-6.11445 1.37783,-2.34381 3.28696,-3.46518 5.90184,-3.4666 3.70979,-0.002 6.53075,2.81462 6.54698,6.53693 0.0113,2.58793 -1.12792,4.52265 -3.47569,5.90281 -1.04944,0.61693 -1.49932,0.71678 -3.08096,0.68386 -1.01865,-0.0212 -2.11627,-0.0807 -2.43917,-0.13229 -0.47547,-0.0759 -1.69128,1.10657 -6.39551,6.22028 l -5.80843,6.31403 1.8976,1.5083 c 4.68989,3.72774 8.40758,9.26457 9.94217,14.80706 0.29785,1.07575 0.59193,2.0063 0.65351,2.06787 0.0992,0.0992 10.24489,-2.75904 13.42471,-3.78195 1.21789,-0.39179 1.22104,-0.39596 1.36646,-1.80486 0.4109,-3.9813 4.03553,-6.7601 7.83383,-6.00576 7.20628,1.43118 7.21462,11.532 0.0108,13.03628 -1.89376,0.39545 -4.06265,-0.19824 -5.51384,-1.50931 -0.55733,-0.50351 -1.2176,-0.91547 -1.46726,-0.91547 -0.24967,0 -3.72213,0.9525 -7.71658,2.11666 -3.99445,1.16417 -7.30002,2.11667 -7.34572,2.11667 -0.0457,0 -0.15288,1.57758 -0.23819,3.50573 -0.25997,5.87555 -2.13358,11.4148 -5.32888,15.75464 -0.71633,0.97291 -1.14649,1.79816 -1.03434,1.98438 0.10559,0.17533 1.54639,2.1942 3.20177,4.48637 2.86453,3.96645 3.044,4.15798 3.71886,3.96875 1.37611,-0.38587 3.83274,-0.19029 4.96045,0.39491 2.64713,1.37368 4.17465,4.42763 3.59736,7.1922 -1.51263,7.24385 -11.53896,7.21823 -13.05999,-0.0334 -0.27645,-1.31795 -0.24713,-1.64304 0.28457,-3.15574 0.32602,-0.92753 0.6154,-1.90085 0.64306,-2.16293 0.0277,-0.26208 -1.25305,-2.2931 -2.84602,-4.51338 l -2.8963,-4.03688 -2.18037,1.74938 c -3.56814,2.86285 -8.58988,5.18655 -13.19369,6.10512 -0.87312,0.17421 -3.0745,0.39017 -4.89195,0.47992 l -3.30445,0.16318 -0.88213,3.18396 -0.88213,3.18395 1.31296,1.31396 c 0.96685,0.96758 1.42532,1.6928 1.73919,2.75105 0.52495,1.76998 0.52906,2.22161 0.0353,3.88426 -1.00828,3.39522 -4.7151,5.45145 -8.12324,4.50608 z m 9.1976,-27.31809 c 2.72717,-1.29413 2.79546,-5.79396 0.11171,-7.36136 -1.26215,-0.73713 -3.29949,-0.70982 -4.54663,0.061 -2.48709,1.5371 -2.42361,5.65231 0.11103,7.1977 1.06286,0.64803 3.07401,0.6958 4.32389,0.1027 z m 19.62574,-11.74437 c 1.37833,-0.84037 1.96355,-2.00328 1.84105,-3.65837 -0.0877,-1.18497 -0.25074,-1.55453 -1.02932,-2.33311 -3.45637,-3.45636 -8.61193,0.89922 -5.92262,5.00362 0.96179,1.46789 3.51438,1.96127 5.11089,0.98786 z m -35.46205,-1.31477 c 1.66385,-0.7553 2.23719,-1.84137 2.1283,-4.03158 -0.072,-1.4478 -0.20804,-1.90137 -0.74169,-2.47254 -1.95777,-2.09539 -5.26978,-1.89679 -6.823008,0.40913 -0.528145,0.78409 -0.608195,1.17883 -0.522195,2.5751 0.08541,1.3866 0.225952,1.78124 0.883076,2.47962 1.489767,1.58329 3.136017,1.9207 5.075517,1.04027 z m 9.00372,-20.11647 c 1.79587,-1.09496 2.46502,-3.65886 1.49076,-5.71196 -1.29413,-2.72718 -5.79395,-2.79547 -7.36135,-0.11171 -1.15816,1.98303 -0.39636,4.97932 1.50419,5.91625 1.21437,0.59867 3.30538,0.55433 4.3664,-0.0926 z"
         id="path854"
         inkscape:connector-curvature="0" />
      <path
         style="fill:#0cf903;stroke-width:0.26458332"
         d="m 111.50033,320.37517 c -2.42228,-0.67192 -4.22142,-2.64418 -4.75855,-5.21649 -0.74161,-3.55149 1.87683,-7.2213 5.57431,-7.81255 1.19689,-0.19139 0.95351,0.3001 2.50057,-5.04982 l 0.39682,-1.37227 -0.84064,-0.16752 c -3.7063,-0.73859 -8.65843,-3.05502 -12.04278,-5.63318 -2.17346,-1.65573 -2.21465,-1.67355 -2.767776,-1.19796 -1.773086,1.52455 -11.297803,10.20996 -11.297803,10.30227 0,0.0607 0.197796,0.82181 0.439547,1.69134 0.372914,1.34129 0.390755,1.79899 0.117689,3.01917 -0.177021,0.79102 -0.671557,1.92096 -1.098969,2.51098 -3.457677,4.77319 -10.724795,3.16574 -11.937219,-2.64046 -0.576728,-2.76189 0.940368,-5.79912 3.597363,-7.20193 1.395764,-0.73691 4.363919,-0.79433 5.636923,-0.10903 l 0.856375,0.46101 5.758207,-5.17995 c 3.167015,-2.84897 5.863539,-5.33071 5.992275,-5.51499 0.158372,-0.22669 -0.16479,-0.84865 -0.999315,-1.92328 -0.678358,-0.87353 -1.869581,-2.8291 -2.647162,-4.34571 l -1.41378,-2.75747 -5.026674,-0.0717 -5.026673,-0.0717 -0.162868,1.01852 c -0.503661,3.14973 -4.325817,5.51642 -7.758146,4.80387 -5.118127,-1.06252 -7.083047,-7.55924 -3.40016,-11.24213 2.930691,-2.93068 7.613057,-2.46725 10.192929,1.00885 l 0.92555,1.24708 h 4.714676 c 4.368746,0 4.704087,-0.034 4.570377,-0.46302 -0.07936,-0.25467 -0.26362,-1.29646 -0.409461,-2.31511 -0.601525,-4.20138 -0.132167,-9.02707 1.282539,-13.18643 l 0.772914,-2.27243 -1.363988,-0.50417 c -5.925292,-2.19016 -6.8825,-2.49268 -7.18082,-2.26949 -0.177061,0.13247 -0.821972,0.61924 -1.433136,1.0817 -3.743216,2.83247 -9.298558,0.71849 -10.328779,-3.93044 -0.365393,-1.64885 0.03949,-3.74738 0.98639,-5.11249 3.661156,-5.27815 11.568081,-3.17942 12.148782,3.22465 l 0.141012,1.55511 4.260166,1.54549 c 3.943244,1.43052 4.280426,1.51048 4.532529,1.07488 1.80834,-3.12464 5.929556,-7.3707 9.122376,-9.39872 1.01864,-0.64703 1.84589,-1.355 1.83834,-1.57328 -0.008,-0.21828 -0.22015,-0.98323 -0.47243,-1.69989 l -0.4587,-1.30302 -1.70361,-0.34729 c -2.95452,-0.60231 -4.997179,-2.57177 -5.581022,-5.38105 -0.921202,-4.43255 3.281322,-8.63507 7.713872,-7.71387 2.70864,0.56293 4.76969,2.62398 5.33262,5.33262 0.41565,1.99998 -0.15754,3.9547 -1.66025,5.66186 l -1.10039,1.25011 0.47901,1.58206 c 0.37604,1.24197 0.56882,1.54542 0.89682,1.41163 3.97719,-1.62226 6.68657,-2.10412 11.6626,-2.07421 3.81355,0.0229 4.69397,0.11355 6.96203,0.7166 1.42802,0.3797 3.56943,1.11104 4.75868,1.62521 l 2.16228,0.93484 0.56396,-0.59311 c 0.45101,-0.47434 8.18875,-8.91463 10.86099,-11.84713 l 0.61116,-0.67069 -0.59028,-1.1814 c -0.89119,-1.78364 -0.83308,-4.47254 0.13214,-6.11445 1.37783,-2.34381 3.28696,-3.46518 5.90184,-3.4666 3.70979,-0.002 6.53075,2.81462 6.54698,6.53693 0.0113,2.58793 -1.12792,4.52265 -3.47569,5.90281 -1.04944,0.61693 -1.49932,0.71678 -3.08096,0.68386 -1.01865,-0.0212 -2.11627,-0.0807 -2.43917,-0.13229 -0.47547,-0.0759 -1.69128,1.10657 -6.39551,6.22028 l -5.80843,6.31403 1.8976,1.5083 c 4.68989,3.72774 8.40758,9.26457 9.94217,14.80706 0.29785,1.07575 0.59193,2.0063 0.65351,2.06787 0.0992,0.0992 10.24489,-2.75904 13.42471,-3.78195 1.21789,-0.39179 1.22104,-0.39596 1.36646,-1.80486 0.4109,-3.9813 4.03553,-6.7601 7.83383,-6.00576 7.20628,1.43118 7.21462,11.532 0.0108,13.03628 -1.89376,0.39545 -4.06265,-0.19824 -5.51384,-1.50931 -0.55733,-0.50351 -1.2176,-0.91547 -1.46726,-0.91547 -0.24967,0 -3.72213,0.9525 -7.71658,2.11666 -3.99445,1.16417 -7.30002,2.11667 -7.34572,2.11667 -0.0457,0 -0.15288,1.57758 -0.23819,3.50573 -0.25997,5.87555 -2.13358,11.4148 -5.32888,15.75464 -0.71633,0.97291 -1.14649,1.79816 -1.03434,1.98438 0.10559,0.17533 1.54639,2.1942 3.20177,4.48637 2.86453,3.96645 3.044,4.15798 3.71886,3.96875 1.37611,-0.38587 3.83274,-0.19029 4.96045,0.39491 2.64713,1.37368 4.17465,4.42763 3.59736,7.1922 -1.51263,7.24385 -11.53896,7.21823 -13.05999,-0.0334 -0.27645,-1.31795 -0.24713,-1.64304 0.28457,-3.15574 0.32602,-0.92753 0.6154,-1.90085 0.64306,-2.16293 0.0277,-0.26208 -1.25305,-2.2931 -2.84602,-4.51338 l -2.8963,-4.03688 -2.18037,1.74938 c -3.56814,2.86285 -8.58988,5.18655 -13.19369,6.10512 -0.87312,0.17421 -3.0745,0.39017 -4.89195,0.47992 l -3.30445,0.16318 -0.88213,3.18396 -0.88213,3.18395 1.31296,1.31396 c 0.96685,0.96758 1.42532,1.6928 1.73919,2.75105 0.52495,1.76998 0.52906,2.22161 0.0353,3.88426 -1.00828,3.39522 -4.7151,5.45145 -8.12324,4.50608 z m 13.54123,-22.51692 c 5.16146,-0.78699 10.04745,-3.05427 13.6913,-6.35325 l 1.23475,-1.1179 -1.33643,-1.82593 c -0.73504,-1.00426 -1.41535,-1.96476 -1.5118,-2.13445 -0.29733,-0.52314 0.31169,-1.67149 1.03163,-1.94522 0.95481,-0.36301 1.47274,-0.0167 2.79565,1.86922 l 1.12163,1.599 0.60471,-0.73953 c 0.97311,-1.19006 3.18977,-5.7004 3.76582,-7.66249 0.82165,-2.79862 1.46882,-8.81975 0.94798,-8.81975 -0.0794,0 -1.64147,0.42933 -3.47129,0.95407 -2.67251,0.76639 -3.44938,0.89828 -3.9494,0.67046 -1.3517,-0.61588 -0.92123,-2.75732 0.62307,-3.09954 1.44984,-0.32129 6.21921,-1.68279 6.34879,-1.81237 0.30932,-0.30931 -0.84908,-3.92094 -2.05479,-6.40641 -7.78069,-16.03914 -29.31731,-19.88747 -42.58003,-7.60853 -1.65428,1.53156 -4.242043,4.76418 -4.246543,5.30474 -0.0013,0.16805 1.436454,0.81296 3.195223,1.43312 3.36153,1.18533 4.16288,1.79137 3.81557,2.88564 -0.0959,0.30204 -0.46125,0.73718 -0.81196,0.96698 -0.60294,0.39506 -0.81775,0.35148 -3.94666,-0.8008 -1.81995,-0.67023 -3.48691,-1.21861 -3.70435,-1.21861 -0.498885,0 -1.075451,1.36082 -1.793634,4.23334 -0.806238,3.22471 -0.794951,8.71349 0.02477,12.03854 0.71019,2.88079 2.699443,7.05413 4.477113,9.39271 5.966001,7.84845 15.736161,11.72059 25.728901,10.19696 z m -7.27604,-23.55308 c -2.864,-1.02981 -3.58301,-4.74789 -1.34998,-6.98091 0.83979,-0.83979 1.1062,-0.94534 2.59807,-1.02935 2.94545,-0.16585 4.54163,1.42518 4.37642,4.36231 -0.0785,1.39647 -0.21245,1.77482 -0.87426,2.47016 -0.42982,0.45161 -0.96009,0.9161 -1.17837,1.0322 -0.84789,0.45097 -2.53172,0.5196 -3.57188,0.14559 z m 12.67842,-13.62314 c -0.72462,-0.29314 -1.92006,-1.73023 -2.1278,-2.55792 -0.26752,-1.0659 0.0527,-2.89941 0.65374,-3.74354 1.14141,-1.60297 3.84149,-2.14784 5.53295,-1.11654 1.27457,0.77711 1.91366,1.99619 1.91483,3.65258 0.002,2.65204 -1.36582,4.03222 -3.96776,4.004 -0.80037,-0.009 -1.70305,-0.11604 -2.00596,-0.23858 z"
         id="path852"
         inkscape:connector-curvature="0" />
      <path
         style="fill:#fe0000;stroke-width:0.26458332"
         d="m 111.50033,320.37517 c -2.42228,-0.67192 -4.22142,-2.64418 -4.75855,-5.21649 -0.74161,-3.55149 1.87683,-7.2213 5.57431,-7.81255 1.19689,-0.19139 0.95351,0.3001 2.50057,-5.04982 l 0.39682,-1.37227 -0.84064,-0.16752 c -3.7063,-0.73859 -8.65843,-3.05502 -12.04278,-5.63318 -2.17346,-1.65573 -2.21465,-1.67355 -2.767776,-1.19796 -1.773086,1.52455 -11.297803,10.20996 -11.297803,10.30227 0,0.0607 0.197796,0.82181 0.439547,1.69134 0.372914,1.34129 0.390755,1.79899 0.117689,3.01917 -0.177021,0.79102 -0.671557,1.92096 -1.098969,2.51098 -3.457677,4.77319 -10.724795,3.16574 -11.937219,-2.64046 -0.576728,-2.76189 0.940368,-5.79912 3.597363,-7.20193 1.395764,-0.73691 4.363919,-0.79433 5.636923,-0.10903 l 0.856375,0.46101 5.758207,-5.17995 c 3.167015,-2.84897 5.863539,-5.33071 5.992275,-5.51499 0.158372,-0.22669 -0.16479,-0.84865 -0.999315,-1.92328 -0.678358,-0.87353 -1.869581,-2.8291 -2.647162,-4.34571 l -1.41378,-2.75747 -5.026674,-0.0717 -5.026673,-0.0717 -0.162868,1.01852 c -0.503661,3.14973 -4.325817,5.51642 -7.758146,4.80387 -5.118127,-1.06252 -7.083047,-7.55924 -3.40016,-11.24213 2.930691,-2.93068 7.613057,-2.46725 10.192929,1.00885 l 0.92555,1.24708 h 4.714676 c 4.368746,0 4.704087,-0.034 4.570377,-0.46302 -0.07936,-0.25467 -0.26362,-1.29646 -0.409461,-2.31511 -0.601525,-4.20138 -0.132167,-9.02707 1.282539,-13.18643 l 0.772914,-2.27243 -1.363988,-0.50417 c -5.925292,-2.19016 -6.8825,-2.49268 -7.18082,-2.26949 -0.177061,0.13247 -0.821972,0.61924 -1.433136,1.0817 -3.743216,2.83247 -9.298558,0.71849 -10.328779,-3.93044 -0.365393,-1.64885 0.03949,-3.74738 0.98639,-5.11249 3.661156,-5.27815 11.568081,-3.17942 12.148782,3.22465 l 0.141012,1.55511 4.260166,1.54549 c 3.943244,1.43052 4.280426,1.51048 4.532529,1.07488 1.80834,-3.12464 5.929556,-7.3707 9.122376,-9.39872 1.01864,-0.64703 1.84589,-1.355 1.83834,-1.57328 -0.008,-0.21828 -0.22015,-0.98323 -0.47243,-1.69989 l -0.4587,-1.30302 -1.70361,-0.34729 c -2.95452,-0.60231 -4.997179,-2.57177 -5.581022,-5.38105 -0.921202,-4.43255 3.281322,-8.63507 7.713872,-7.71387 2.70864,0.56293 4.76969,2.62398 5.33262,5.33262 0.41565,1.99998 -0.15754,3.9547 -1.66025,5.66186 l -1.10039,1.25011 0.47901,1.58206 c 0.37604,1.24197 0.56882,1.54542 0.89682,1.41163 3.97719,-1.62226 6.68657,-2.10412 11.6626,-2.07421 3.81355,0.0229 4.69397,0.11355 6.96203,0.7166 1.42802,0.3797 3.56943,1.11104 4.75868,1.62521 l 2.16228,0.93484 0.56396,-0.59311 c 0.45101,-0.47434 8.18875,-8.91463 10.86099,-11.84713 l 0.61116,-0.67069 -0.59028,-1.1814 c -0.89119,-1.78364 -0.83308,-4.47254 0.13214,-6.11445 1.37783,-2.34381 3.28696,-3.46518 5.90184,-3.4666 3.70979,-0.002 6.53075,2.81462 6.54698,6.53693 0.0113,2.58793 -1.12792,4.52265 -3.47569,5.90281 -1.04944,0.61693 -1.49932,0.71678 -3.08096,0.68386 -1.01865,-0.0212 -2.11627,-0.0807 -2.43917,-0.13229 -0.47547,-0.0759 -1.69128,1.10657 -6.39551,6.22028 l -5.80843,6.31403 1.8976,1.5083 c 4.68989,3.72774 8.40758,9.26457 9.94217,14.80706 0.29785,1.07575 0.59193,2.0063 0.65351,2.06787 0.0992,0.0992 10.24489,-2.75904 13.42471,-3.78195 1.21789,-0.39179 1.22104,-0.39596 1.36646,-1.80486 0.4109,-3.9813 4.03553,-6.7601 7.83383,-6.00576 7.20628,1.43118 7.21462,11.532 0.0108,13.03628 -1.89376,0.39545 -4.06265,-0.19824 -5.51384,-1.50931 -0.55733,-0.50351 -1.2176,-0.91547 -1.46726,-0.91547 -0.24967,0 -3.72213,0.9525 -7.71658,2.11666 -3.99445,1.16417 -7.30002,2.11667 -7.34572,2.11667 -0.0457,0 -0.15288,1.57758 -0.23819,3.50573 -0.25997,5.87555 -2.13358,11.4148 -5.32888,15.75464 -0.71633,0.97291 -1.14649,1.79816 -1.03434,1.98438 0.10559,0.17533 1.54639,2.1942 3.20177,4.48637 2.86453,3.96645 3.044,4.15798 3.71886,3.96875 1.37611,-0.38587 3.83274,-0.19029 4.96045,0.39491 2.64713,1.37368 4.17465,4.42763 3.59736,7.1922 -1.51263,7.24385 -11.53896,7.21823 -13.05999,-0.0334 -0.27645,-1.31795 -0.24713,-1.64304 0.28457,-3.15574 0.32602,-0.92753 0.6154,-1.90085 0.64306,-2.16293 0.0277,-0.26208 -1.25305,-2.2931 -2.84602,-4.51338 l -2.8963,-4.03688 -2.18037,1.74938 c -3.56814,2.86285 -8.58988,5.18655 -13.19369,6.10512 -0.87312,0.17421 -3.0745,0.39017 -4.89195,0.47992 l -3.30445,0.16318 -0.88213,3.18396 -0.88213,3.18395 1.31296,1.31396 c 0.96685,0.96758 1.42532,1.6928 1.73919,2.75105 0.52495,1.76998 0.52906,2.22161 0.0353,3.88426 -1.00828,3.39522 -4.7151,5.45145 -8.12324,4.50608 z m 13.54123,-22.51692 c 5.16146,-0.78699 10.04745,-3.05427 13.6913,-6.35325 l 1.23475,-1.1179 -1.33643,-1.82593 c -0.73504,-1.00426 -1.41535,-1.96476 -1.5118,-2.13445 -0.29733,-0.52314 0.31169,-1.67149 1.03163,-1.94522 0.95481,-0.36301 1.47274,-0.0167 2.79565,1.86922 l 1.12163,1.599 0.60471,-0.73953 c 0.97311,-1.19006 3.18977,-5.7004 3.76582,-7.66249 0.82165,-2.79862 1.46882,-8.81975 0.94798,-8.81975 -0.0794,0 -1.64147,0.42933 -3.47129,0.95407 -2.67251,0.76639 -3.44938,0.89828 -3.9494,0.67046 -1.3517,-0.61588 -0.92123,-2.75732 0.62307,-3.09954 1.44984,-0.32129 6.21921,-1.68279 6.34879,-1.81237 0.30932,-0.30931 -0.84908,-3.92094 -2.05479,-6.40641 -7.78069,-16.03914 -29.31731,-19.88747 -42.58003,-7.60853 -1.65428,1.53156 -4.242043,4.76418 -4.246543,5.30474 -0.0013,0.16805 1.436454,0.81296 3.195223,1.43312 3.36153,1.18533 4.16288,1.79137 3.81557,2.88564 -0.0959,0.30204 -0.46125,0.73718 -0.81196,0.96698 -0.60294,0.39506 -0.81775,0.35148 -3.94666,-0.8008 -1.81995,-0.67023 -3.48691,-1.21861 -3.70435,-1.21861 -0.498885,0 -1.075451,1.36082 -1.793634,4.23334 -0.806238,3.22471 -0.794951,8.71349 0.02477,12.03854 0.71019,2.88079 2.699443,7.05413 4.477113,9.39271 5.966001,7.84845 15.736161,11.72059 25.728901,10.19696 z m 5.40238,-37.17622 c -0.72462,-0.29314 -1.92006,-1.73023 -2.1278,-2.55792 -0.26752,-1.0659 0.0527,-2.89941 0.65374,-3.74354 1.14141,-1.60297 3.84149,-2.14784 5.53295,-1.11654 1.27457,0.77711 1.91366,1.99619 1.91483,3.65258 0.002,2.65204 -1.36582,4.03222 -3.96776,4.004 -0.80037,-0.009 -1.70305,-0.11604 -2.00596,-0.23858 z"
         id="path850"
         inkscape:connector-curvature="0" />
      <path
         style="fill:#000000;stroke-width:0.26458332"
         d="m 111.50033,320.37517 c -2.42228,-0.67192 -4.22142,-2.64418 -4.75855,-5.21649 -0.74161,-3.55149 1.87683,-7.2213 5.57431,-7.81255 1.19689,-0.19139 0.95351,0.3001 2.50057,-5.04982 l 0.39682,-1.37227 -0.84064,-0.16752 c -3.7063,-0.73859 -8.65843,-3.05502 -12.04278,-5.63318 -2.17346,-1.65573 -2.21465,-1.67355 -2.767776,-1.19796 -1.773086,1.52455 -11.297803,10.20996 -11.297803,10.30227 0,0.0607 0.197796,0.82181 0.439547,1.69134 0.372914,1.34129 0.390755,1.79899 0.117689,3.01917 -0.177021,0.79102 -0.671557,1.92096 -1.098969,2.51098 -3.457677,4.77319 -10.724795,3.16574 -11.937219,-2.64046 -0.576728,-2.76189 0.940368,-5.79912 3.597363,-7.20193 1.395764,-0.73691 4.363919,-0.79433 5.636923,-0.10903 l 0.856375,0.46101 5.758207,-5.17995 c 3.167015,-2.84897 5.863539,-5.33071 5.992275,-5.51499 0.158372,-0.22669 -0.16479,-0.84865 -0.999315,-1.92328 -0.678358,-0.87353 -1.869581,-2.8291 -2.647162,-4.34571 l -1.41378,-2.75747 -5.026674,-0.0717 -5.026673,-0.0717 -0.162868,1.01852 c -0.503661,3.14973 -4.325817,5.51642 -7.758146,4.80387 -5.118127,-1.06252 -7.083047,-7.55924 -3.40016,-11.24213 2.930691,-2.93068 7.613057,-2.46725 10.192929,1.00885 l 0.92555,1.24708 h 4.714676 c 4.368746,0 4.704087,-0.034 4.570377,-0.46302 -0.07936,-0.25467 -0.26362,-1.29646 -0.409461,-2.31511 -0.601525,-4.20138 -0.132167,-9.02707 1.282539,-13.18643 l 0.772914,-2.27243 -1.363988,-0.50417 c -5.925292,-2.19016 -6.8825,-2.49268 -7.18082,-2.26949 -0.177061,0.13247 -0.821972,0.61924 -1.433136,1.0817 -3.743216,2.83247 -9.298558,0.71849 -10.328779,-3.93044 -0.365393,-1.64885 0.03949,-3.74738 0.98639,-5.11249 3.661156,-5.27815 11.568081,-3.17942 12.148782,3.22465 l 0.141012,1.55511 4.260166,1.54549 c 3.943244,1.43052 4.280426,1.51048 4.532529,1.07488 1.80834,-3.12464 5.929556,-7.3707 9.122376,-9.39872 1.01864,-0.64703 1.84589,-1.355 1.83834,-1.57328 -0.008,-0.21828 -0.22015,-0.98323 -0.47243,-1.69989 l -0.4587,-1.30302 -1.70361,-0.34729 c -2.95452,-0.60231 -4.997179,-2.57177 -5.581022,-5.38105 -0.921202,-4.43255 3.281322,-8.63507 7.713872,-7.71387 2.70864,0.56293 4.76969,2.62398 5.33262,5.33262 0.41565,1.99998 -0.15754,3.9547 -1.66025,5.66186 l -1.10039,1.25011 0.47901,1.58206 c 0.37604,1.24197 0.56882,1.54542 0.89682,1.41163 3.97719,-1.62226 6.68657,-2.10412 11.6626,-2.07421 3.81355,0.0229 4.69397,0.11355 6.96203,0.7166 1.42802,0.3797 3.56943,1.11104 4.75868,1.62521 l 2.16228,0.93484 0.56396,-0.59311 c 0.45101,-0.47434 8.18875,-8.91463 10.86099,-11.84713 l 0.61116,-0.67069 -0.59028,-1.1814 c -0.89119,-1.78364 -0.83308,-4.47254 0.13214,-6.11445 1.37783,-2.34381 3.28696,-3.46518 5.90184,-3.4666 3.70979,-0.002 6.53075,2.81462 6.54698,6.53693 0.0113,2.58793 -1.12792,4.52265 -3.47569,5.90281 -1.04944,0.61693 -1.49932,0.71678 -3.08096,0.68386 -1.01865,-0.0212 -2.11627,-0.0807 -2.43917,-0.13229 -0.47547,-0.0759 -1.69128,1.10657 -6.39551,6.22028 l -5.80843,6.31403 1.8976,1.5083 c 4.68989,3.72774 8.40758,9.26457 9.94217,14.80706 0.29785,1.07575 0.59193,2.0063 0.65351,2.06787 0.0992,0.0992 10.24489,-2.75904 13.42471,-3.78195 1.21789,-0.39179 1.22104,-0.39596 1.36646,-1.80486 0.4109,-3.9813 4.03553,-6.7601 7.83383,-6.00576 7.20628,1.43118 7.21462,11.532 0.0108,13.03628 -1.89376,0.39545 -4.06265,-0.19824 -5.51384,-1.50931 -0.55733,-0.50351 -1.2176,-0.91547 -1.46726,-0.91547 -0.24967,0 -3.72213,0.9525 -7.71658,2.11666 -3.99445,1.16417 -7.30002,2.11667 -7.34572,2.11667 -0.0457,0 -0.15288,1.57758 -0.23819,3.50573 -0.25997,5.87555 -2.13358,11.4148 -5.32888,15.75464 -0.71633,0.97291 -1.14649,1.79816 -1.03434,1.98438 0.10559,0.17533 1.54639,2.1942 3.20177,4.48637 2.86453,3.96645 3.044,4.15798 3.71886,3.96875 1.37611,-0.38587 3.83274,-0.19029 4.96045,0.39491 2.64713,1.37368 4.17465,4.42763 3.59736,7.1922 -1.51263,7.24385 -11.53896,7.21823 -13.05999,-0.0334 -0.27645,-1.31795 -0.24713,-1.64304 0.28457,-3.15574 0.32602,-0.92753 0.6154,-1.90085 0.64306,-2.16293 0.0277,-0.26208 -1.25305,-2.2931 -2.84602,-4.51338 l -2.8963,-4.03688 -2.18037,1.74938 c -3.56814,2.86285 -8.58988,5.18655 -13.19369,6.10512 -0.87312,0.17421 -3.0745,0.39017 -4.89195,0.47992 l -3.30445,0.16318 -0.88213,3.18396 -0.88213,3.18395 1.31296,1.31396 c 0.96685,0.96758 1.42532,1.6928 1.73919,2.75105 0.52495,1.76998 0.52906,2.22161 0.0353,3.88426 -1.00828,3.39522 -4.7151,5.45145 -8.12324,4.50608 z m 13.54123,-22.51692 c 5.16146,-0.78699 10.04745,-3.05427 13.6913,-6.35325 l 1.23475,-1.1179 -1.33643,-1.82593 c -0.73504,-1.00426 -1.41535,-1.96476 -1.5118,-2.13445 -0.29733,-0.52314 0.31169,-1.67149 1.03163,-1.94522 0.95481,-0.36301 1.47274,-0.0167 2.79565,1.86922 l 1.12163,1.599 0.60471,-0.73953 c 0.97311,-1.19006 3.18977,-5.7004 3.76582,-7.66249 0.82165,-2.79862 1.46882,-8.81975 0.94798,-8.81975 -0.0794,0 -1.64147,0.42933 -3.47129,0.95407 -2.67251,0.76639 -3.44938,0.89828 -3.9494,0.67046 -1.3517,-0.61588 -0.92123,-2.75732 0.62307,-3.09954 1.44984,-0.32129 6.21921,-1.68279 6.34879,-1.81237 0.30932,-0.30931 -0.84908,-3.92094 -2.05479,-6.40641 -7.78069,-16.03914 -29.31731,-19.88747 -42.58003,-7.60853 -1.65428,1.53156 -4.242043,4.76418 -4.246543,5.30474 -0.0013,0.16805 1.436454,0.81296 3.195223,1.43312 3.36153,1.18533 4.16288,1.79137 3.81557,2.88564 -0.0959,0.30204 -0.46125,0.73718 -0.81196,0.96698 -0.60294,0.39506 -0.81775,0.35148 -3.94666,-0.8008 -1.81995,-0.67023 -3.48691,-1.21861 -3.70435,-1.21861 -0.498885,0 -1.075451,1.36082 -1.793634,4.23334 -0.806238,3.22471 -0.794951,8.71349 0.02477,12.03854 0.71019,2.88079 2.699443,7.05413 4.477113,9.39271 5.966001,7.84845 15.736161,11.72059 25.728901,10.19696 z"
         id="path848"
         inkscape:connector-curvature="0" />
    </g>
  </g>
</svg>
